<svg width="16" height="16" viewBox="0 0 16 16" fill="none" xmlns="http://www.w3.org/2000/svg">
<path d="M7.3787 3.77722L4.0846 7.99346L7.38926 12.2224C7.55587 12.4359 7.40389 12.7477 7.133 12.7477H4.78703C4.6868 12.7477 4.59226 12.7016 4.53076 12.6228L1.06898 8.19202C0.976872 8.07445 0.977143 7.90921 1.06898 7.79164L4.52047 3.37684C4.58196 3.29801 4.67651 3.25195 4.77647 3.25195H7.12243C7.39333 3.25195 7.54557 3.56376 7.3787 3.77722Z" fill="#FBFAFD"/>
<path d="M11.4698 3.37684L14.9316 7.80762C15.0237 7.92519 15.0229 8.09071 14.931 8.20828L11.4795 12.6231C11.418 12.7019 11.3235 12.748 11.2235 12.748H8.87757C8.60667 12.748 8.45443 12.4362 8.6213 12.2227L11.9154 8.00646L8.61128 3.77722C8.44468 3.56376 8.59665 3.25195 8.86755 3.25195H11.2135C11.3137 3.25195 11.4083 3.29801 11.4698 3.37684Z" fill="#FBFAFD"/>
</svg>
