<svg width="16" height="16" viewBox="0 0 16 16" fill="none" xmlns="http://www.w3.org/2000/svg">
<path d="M4.0846 7.99346L7.3787 3.77722C7.54557 3.56376 7.39333 3.25195 7.12243 3.25195H4.77647C4.67651 3.25195 4.58196 3.29801 4.52047 3.37684L1.06898 7.79164C0.977142 7.90921 0.976871 8.07445 1.06898 8.19202L4.53076 12.6228C4.59226 12.7016 4.6868 12.7477 4.78703 12.7477H7.133C7.40389 12.7477 7.55587 12.4359 7.38926 12.2224L4.0846 7.99346Z" fill="#757575"/>
<path d="M14.9316 7.80762L11.4698 3.37684C11.4083 3.29801 11.3137 3.25195 11.2135 3.25195H8.86758C8.59668 3.25195 8.44471 3.56376 8.61131 3.77722L11.9154 8.00646L8.62133 12.2227C8.45446 12.4362 8.6067 12.748 8.8776 12.748H11.2235C11.3235 12.748 11.418 12.7019 11.4795 12.6231L14.931 8.20828C15.0229 8.09071 15.0237 7.92519 14.9316 7.80762Z" fill="#757575"/>
</svg>
